{
  "accessors": [
    {
      "bufferView": 2,
      "componentType": 5126,
      "count": 16289,
      "max": [
        297.6770935058594,
        405.5613098144531,
        1752.9951171875
      ],
      "min": [
        -299.6549987792969,
        -413.9726867675781,
        0.0
      ],
      "type": "VEC3"
    },
    {
      "bufferView": 2,
      "byteOffset": 195468,
      "componentType": 5126,
      "count": 16289,
      "max": [
        0.9999810457229614,
        0.9999244213104248,
        0.999995231628418
      ],
      "min": [
        -0.9999814033508301,
        -0.9998317360877991,
        -0.9999827146530151
      ],
      "type": "VEC3"
    },
    {
      "bufferView": 3,
      "componentType": 5126,
      "count": 16289,
      "max": [
        0.9999780058860779,
        0.9998730421066284,
        0.9997804164886475,
        1.0
      ],
      "min": [
        -0.999945878982544,
        -0.999962329864502,
        -0.9999812841415405,
        -1.0
      ],
      "type": "VEC4"
    },
    {
      "bufferView": 1,
      "componentType": 5126,
      "count": 16289,
      "max": [
        0.9954000115394592,
        0.9980000257492065
      ],
      "min": [
        0.0017000000225380063,
        0.004999995231628418
      ],
      "type": "VEC2"
    },
    {
      "bufferView": 1,
      "byteOffset": 130312,
      "componentType": 5126,
      "count": 16289,
      "max": [
        0.9954000115394592,
        0.9980000257492065
      ],
      "min": [
        0.0017000000225380063,
        0.004999995231628418
      ],
      "type": "VEC2"
    },
    {
      "bufferView": 1,
      "byteOffset": 260624,
      "componentType": 5126,
      "count": 16289,
      "max": [
        0.9954000115394592,
        0.9980000257492065
      ],
      "min": [
        0.0017000000225380063,
        0.004999995231628418
      ],
      "type": "VEC2"
    },
    {
      "bufferView": 1,
      "byteOffset": 390936,
      "componentType": 5126,
      "count": 16289,
      "max": [
        0.9954000115394592,
        0.9980000257492065
      ],
      "min": [
        0.0017000000225380063,
        0.004999995231628418
      ],
      "type": "VEC2"
    },
    {
      "bufferView": 0,
      "componentType": 5125,
      "count": 90042,
      "type": "SCALAR"
    }
  ],
  "asset": {
    "extras": {
      "author": "Wólka Kosowska (https://sketchfab.com/wolkahurt.eu)",
      "license": "CC-BY-4.0 (http://creativecommons.org/licenses/by/4.0/)",
      "source": "https://sketchfab.com/3d-models/salon-sprzedazy-taniej-odziezy-damskiej-6c71f44f754047bdac079fac542489b6",
      "title": "Salon sprzedazy taniej odziezy damskiej"
    },
    "generator": "Sketchfab-15.58.0",
    "version": "2.0"
  },
  "bufferViews": [
    {
      "buffer": 0,
      "byteLength": 360168,
      "name": "floatBufferViews",
      "target": 34963
    },
    {
      "buffer": 0,
      "byteLength": 521248,
      "byteOffset": 360168,
      "byteStride": 8,
      "name": "floatBufferViews",
      "target": 34962
    },
    {
      "buffer": 0,
      "byteLength": 390936,
      "byteOffset": 881416,
      "byteStride": 12,
      "name": "floatBufferViews",
      "target": 34962
    },
    {
      "buffer": 0,
      "byteLength": 260624,
      "byteOffset": 1272352,
      "byteStride": 16,
      "name": "floatBufferViews",
      "target": 34962
    }
  ],
  "buffers": [
    {
      "byteLength": 1532976,
      "uri": "scene.bin"
    }
  ],
  "images": [
    {
      "uri": "textures/material_0_baseColor.jpeg"
    },
    {
      "uri": "textures/material_0_metallicRoughness.png"
    },
    {
      "uri": "textures/material_0_normal.jpeg"
    }
  ],
  "materials": [
    {
      "doubleSided": true,
      "name": "material_0",
      "normalTexture": {
        "index": 2
      },
      "pbrMetallicRoughness": {
        "baseColorTexture": {
          "index": 0
        },
        "metallicRoughnessTexture": {
          "index": 1
        }
      }
    }
  ],
  "meshes": [
    {
      "name": "Object_0",
      "primitives": [
        {
          "attributes": {
            "NORMAL": 1,
            "POSITION": 0,
            "TANGENT": 2,
            "TEXCOORD_0": 3,
            "TEXCOORD_1": 4,
            "TEXCOORD_2": 5,
            "TEXCOORD_3": 6
          },
          "indices": 7,
          "material": 0,
          "mode": 4
        }
      ]
    }
  ],
  "nodes": [
    {
      "children": [
        1
      ],
      "matrix": [
        1.0,
        0.0,
        0.0,
        0.0,
        0.0,
        2.220446049250313e-16,
        -1.0,
        0.0,
        0.0,
        1.0,
        2.220446049250313e-16,
        0.0,
        0.0,
        0.0,
        0.0,
        1.0
      ],
      "name": "Sketchfab_model"
    },
    {
      "children": [
        2
      ],
      "matrix": [
        0.009999999776482582,
        0.0,
        0.0,
        0.0,
        0.0,
        2.2204459996194763e-18,
        0.009999999776482582,
        0.0,
        0.0,
        -0.009999999776482582,
        2.2204459996194763e-18,
        0.0,
        0.0,
        0.0,
        0.0,
        1.0
      ],
      "name": "USDRoot"
    },
    {
      "children": [
        3
      ],
      "name": "scene"
    },
    {
      "children": [
        4
      ],
      "matrix": [
        0.17113566398620605,
        0.0,
        0.0,
        0.0,
        0.0,
        0.17113566398620605,
        0.0,
        0.0,
        0.0,
        0.0,
        0.17113566398620605,
        0.0,
        0.0,
        0.0,
        0.0,
        1.0
      ],
      "name": "Meshes"
    },
    {
      "children": [
        5
      ],
      "matrix": [
        1.0,
        0.0,
        0.0,
        0.0,
        0.0,
        2.220446049250313e-16,
        -1.0,
        0.0,
        0.0,
        1.0,
        2.220446049250313e-16,
        0.0,
        0.0,
        0.0,
        0.0,
        1.0
      ],
      "name": "Sketchfab_model"
    },
    {
      "children": [
        6
      ],
      "name": "Marina_1276_OBJ_obj_cleaner_materialmerger_gles"
    },
    {
      "children": [
        7
      ],
      "name": "Object_2"
    },
    {
      "mesh": 0,
      "name": "Object_0"
    }
  ],
  "samplers": [
    {
      "magFilter": 9729,
      "minFilter": 9987,
      "wrapS": 10497,
      "wrapT": 10497
    }
  ],
  "scene": 0,
  "scenes": [
    {
      "name": "Sketchfab_Scene",
      "nodes": [
        0
      ]
    }
  ],
  "textures": [
    {
      "sampler": 0,
      "source": 0
    },
    {
      "sampler": 0,
      "source": 1
    },
    {
      "sampler": 0,
      "source": 2
    }
  ]
}
